<svg id="Layer_1" data-name="Layer 1" xmlns="http://www.w3.org/2000/svg" viewBox="0 0 300 300"><defs><style>.cls-1{fill:#37ab52;}</style></defs><path class="cls-1" d="M62.49,148.63c10.6,3.28,14.1,11.07,14.1,11.07s-13.69,2.47-24.28-.82-14.1-11.07-14.1-11.07S51.9,145.34,62.49,148.63Z"/><path class="cls-1" d="M99.72,148.12c10.43-1.48,25,.74,25,.74s-4.44,7.07-15.11,10.11-23.52.88-23.52.88S88.79,149.67,99.72,148.12Z"/><path class="cls-1" d="M108.36,137.2c4.26-2.48,13.6-.92,13.6-.92s2.45,5.58-1.8,8.06-13.6.91-13.6.91S104.11,139.67,108.36,137.2Z"/><path class="cls-1" d="M44.86,144.93a3.87,3.87,0,0,1-2.57-3.59s4.3-1.14,6.91-.21a3.86,3.86,0,0,1,2.56,3.59S47.47,145.87,44.86,144.93Z"/><path class="cls-1" d="M63.05,129.94c-2-2.58,1.85-6,1.85-6s7.1.76,9.1,3.33-1.85,6-1.85,6S65.05,132.51,63.05,129.94Z"/><path class="cls-1" d="M76.2,132.89c4-9.89,22.2-16,22.2-16s11.8,9.9,7.83,19.79-22.2,16-22.2,16S72.23,142.78,76.2,132.89Z"/><path class="cls-1" d="M81.54,152.08a14.8,14.8,0,0,1-1.08,3.8s-1.89-.29-4.69-1a27.29,27.29,0,0,0-13-8.37A41,41,0,0,0,56,145.11c-5.6-6.82-1.8-14.78-1.8-14.78s10.41,1.59,18.26,5.89C72.78,144.52,80.93,151.56,81.54,152.08Z"/><path class="cls-1" d="M129,171a1,1,0,0,1-.94.26.82.82,0,0,1-.48-.24c-1.7-1.65-6.47-2.61-14.56-2.91a26.81,26.81,0,0,0,9.17,9c.36.21.73.4,1.11.58a.93.93,0,0,1,.5.51l-1.32,1.33h0a19.44,19.44,0,0,1-1.75-.92,29.28,29.28,0,0,1-10.09-10.57c-2.61-.06-5.62-.07-9.18,0a41.93,41.93,0,0,1-10.49-1.14c.86,2.09,2.77,5.85,5.64,7.09a1,1,0,0,1,.53,1.33,1,1,0,0,1-1.33.52c-4.31-1.85-6.59-7.62-7.26-9.61a28.27,28.27,0,0,1-5-2.06l.16,13a47.8,47.8,0,0,0,9.48,4.31c1.49-.94,6.38-3.6,14.62-4.37a1,1,0,0,1,.19,2,35.1,35.1,0,0,0-12.08,3.17q.79.22,1.53.39c.92.21,2,.43,3.23.66,4,.77,8.78,1.68,11.86,3.43a9.81,9.81,0,0,1,1.58,1.12l-1.43,1.44a7.61,7.61,0,0,0-1.64-1.06,34.56,34.56,0,0,0-7.82-2.38,20.3,20.3,0,0,0,2.77,7.42,9.59,9.59,0,0,0,1,1.33,1.13,1.13,0,0,1,.13.2l-1.36,1.36a.72.72,0,0,1-.25-.18,13.27,13.27,0,0,1-1-1.25,22.54,22.54,0,0,1-3.44-9.3l-.8-.15c-1.2-.23-2.35-.45-3.31-.67a50.47,50.47,0,0,1-13.26-5.12l.08,6a14.16,14.16,0,0,1,8.81,3.54,1,1,0,0,1,.34.69.93.93,0,0,1-.24.73,1,1,0,0,1-1.42.11,12.27,12.27,0,0,0-7.47-3.06l.06,5.31c2,.56,8.59,4.94,13.56,8.81l.09.1a1,1,0,0,1,.08,1.33,1,1,0,0,1-1.42.17l-.08-.07c-4.23-3.31-10.27-7.6-12.2-8.21L84,212.43a.5.5,0,0,1,0,.17,1,1,0,0,1-1,.84,1,1,0,0,1-1-.76.91.91,0,0,1,0-.23l-.17-24.89c-2,.11-4,.57-8.44,2.52,1,7.67-2.41,10.58-2.56,10.69a1,1,0,1,1-1.29-1.55S72,197,71.45,191a38.28,38.28,0,0,0-8.72,5.83l-.26.23A1,1,0,0,1,61,197a1.07,1.07,0,0,1-.26-.73,1,1,0,0,1,.34-.71l.19-.16a40,40,0,0,1,10.56-6.86c5.24-2.33,7.47-2.87,9.93-3l-.16-13.46c-3.32,2.56-10.34,7.5-15.06,7.57l-1.14,0c0,1.74-3.69,10.58-5.71,13a1,1,0,0,1-.81.35,1.1,1.1,0,0,1-.61-.22,1.05,1.05,0,0,1-.36-.75,1,1,0,0,1,.23-.68c1.55-1.86,5.22-10.08,5.24-11.59-3.86.33-8.49,1.34-12.21,5.53a18.69,18.69,0,0,0-1.19,1.5l-1.45-1.44a16.67,16.67,0,0,1,1.21-1.49c4.38-4.89,9.92-5.91,14.48-6.17l.13,0h.06c.66,0,1.38-.07,2.11-.08a9.58,9.58,0,0,0,2.79-.57,25.1,25.1,0,0,1-8.44-3.9,1,1,0,0,1-.22-1.42,1,1,0,0,1,1.4-.22,23.54,23.54,0,0,0,10.52,4.09,60.17,60.17,0,0,0,9-6.07L81.54,164a31.91,31.91,0,0,1-5.5,1.5c.14,1.28-.19,3.56-3.06,6.27a1,1,0,0,1-1.43,0,1,1,0,0,1-.27-.72,1,1,0,0,1,.32-.71c2.2-2.08,2.49-3.66,2.45-4.47a103.77,103.77,0,0,1-13.91,1l-4.59.07c-1,1.65-4.18,6.37-11,11.75-.5.39-1,.77-1.54,1.16l-1.45-1.44c.54-.38,1-.78,1.54-1.17a47.75,47.75,0,0,0,10-10.23c-11.77.4-14,1.46-16.25,3.76l-.13.1a1.05,1.05,0,0,1-1.3-.09,1,1,0,0,1-.11-1.31l.09-.12c3-3.06,6-4.06,19.33-4.41a1.19,1.19,0,0,1,.46,0c1.46,0,3.13-.07,4.95-.09,14.25-.18,19.81-2.24,21.39-3l0-2.84a1,1,0,0,1,1-1,1,1,0,0,1,1,1l0,2.9c1.48.92,7.65,4.33,17.87,4.2,3.82,0,7,0,9.77,0,10.09.27,15.57,1.36,17.81,3.55a1,1,0,0,1,0,1.42Z"/><path class="cls-1" d="M138.31,147.33,90.83,99.84a11.62,11.62,0,0,0-16.41,0L26.93,147.33a11.61,11.61,0,0,0,0,16.4l14.6,14.6L43,179.77l7,7,24.4,24.41a11.62,11.62,0,0,0,16.41,0l16.36-16.37,5.51-5.51,1.43-1.44,8.35-8.34,1.32-1.33,14.51-14.5a11.61,11.61,0,0,0,0-16.4Zm-1.35,15-7.71,7.7-7.06,7.06-1.49,1.49-8.15,8.15-1.49,1.5-5,5-1.45,1.46-7,7-1.42,1.43-6.67,6.67A9.65,9.65,0,0,1,84,212.6a9.26,9.26,0,0,1-2,.08,9.67,9.67,0,0,1-6.25-2.81l-13-13-1.42-1.43L58.92,193l-1-1-6.74-6.74-1.43-1.43-5.26-5.27-7.82-7.82-1.41-1.4-7-7a9.68,9.68,0,0,1,0-13.7l47.49-47.49a9.71,9.71,0,0,1,13.7,0L137,148.68a9.68,9.68,0,0,1,0,13.7Z"/><ellipse class="cls-1" cx="77.52" cy="120.11" rx="4.01" ry="4.49"/><ellipse class="cls-1" cx="82.68" cy="111.14" rx="2.84" ry="3.17"/><path class="cls-1" d="M153,149.8a11.38,11.38,0,0,1-4.09-2.27l1.69-3.46a12.38,12.38,0,0,0,3.61,2.06,13.3,13.3,0,0,0,4.34.9,7.54,7.54,0,0,0,4.08-.73,2.62,2.62,0,0,0,1.42-2.25,2.21,2.21,0,0,0-.68-1.75,5.36,5.36,0,0,0-1.86-1.13c-.76-.28-1.8-.61-3.11-1a36.15,36.15,0,0,1-4.46-1.48,7.38,7.38,0,0,1-2.88-2.17,5.62,5.62,0,0,1-1.11-3.86,6.54,6.54,0,0,1,1.23-3.63,7.4,7.4,0,0,1,3.4-2.51,13.41,13.41,0,0,1,5.44-.79,17.5,17.5,0,0,1,4.37.71,12.23,12.23,0,0,1,3.67,1.73l-1.55,3.47a14.25,14.25,0,0,0-3.29-1.54,12.43,12.43,0,0,0-3.36-.61,7,7,0,0,0-4,.77,2.79,2.79,0,0,0-1.39,2.35,2.18,2.18,0,0,0,.69,1.73,5.29,5.29,0,0,0,1.86,1.11c.76.29,1.79.61,3.1,1a32.87,32.87,0,0,1,4.41,1.46,7.62,7.62,0,0,1,2.9,2.18,5.44,5.44,0,0,1,1.11,3.8,6.52,6.52,0,0,1-1.22,3.62,7.52,7.52,0,0,1-3.42,2.49,13.57,13.57,0,0,1-5.46.79A18.89,18.89,0,0,1,153,149.8Z"/><path class="cls-1" d="M179.65,129.83l-8.07-.28.13-3.83,20.68.72-.14,3.83-8.07-.28-.72,20.53-4.52-.16Z"/><path class="cls-1" d="M212.16,145,200,144.59l-2.6,5.55-4.66-.16,11.81-24,4.46.16,10.14,24.74-4.73-.16Zm-1.37-3.61-4.22-10.81-4.94,10.49Z"/><path class="cls-1" d="M239.39,150.67l-4.73-7.31a7.16,7.16,0,0,1-.94,0l-5.5-.19-.25,7.1-4.52-.16.85-24.36,10,.35a13.45,13.45,0,0,1,5.48,1.24,8,8,0,0,1,3.5,3.12,8.36,8.36,0,0,1,1.09,4.67,8.21,8.21,0,0,1-1.51,4.68,7.9,7.9,0,0,1-3.95,2.83l5.33,8.2Zm-1-19.34a7,7,0,0,0-4.44-1.41l-5.29-.18-.34,9.71,5.29.18a6.88,6.88,0,0,0,4.53-1.11,4.42,4.42,0,0,0,1.66-3.55A4.36,4.36,0,0,0,238.42,131.33Z"/><path class="cls-1" d="M168,169.13l4.28.15L171.9,179a13.62,13.62,0,0,1-4.47,2.14,16.66,16.66,0,0,1-5.17.62,13.83,13.83,0,0,1-6.67-1.85,12.11,12.11,0,0,1-4.54-4.64,13,13,0,0,1,.45-12.88,12,12,0,0,1,4.87-4.3,14.17,14.17,0,0,1,6.83-1.39,14.94,14.94,0,0,1,5.53,1.21,11,11,0,0,1,4.11,3.1l-3,2.69a9.16,9.16,0,0,0-6.62-3,9.48,9.48,0,0,0-4.61.92,7.81,7.81,0,0,0-3.24,2.92,8.7,8.7,0,0,0-1.29,4.41,8.55,8.55,0,0,0,1,4.43,8.21,8.21,0,0,0,3,3.17,9.2,9.2,0,0,0,4.51,1.27,9.71,9.71,0,0,0,5.05-1.08Z"/><path class="cls-1" d="M195,175.93l-12.18-.42-2.6,5.55-4.67-.16,11.82-24,4.45.16,10.15,24.74-4.73-.16Zm-1.37-3.6-4.23-10.81L184.44,172Z"/><path class="cls-1" d="M225.32,177.91l-.13,3.82L204.41,181l.11-3,14.95-17-14.1-.49.13-3.83,20.09.7-.11,3-14.95,17Z"/><path class="cls-1" d="M249,177.91l-.13,3.8-18.27-.64.85-24.37,17.78.63-.13,3.79-13.26-.46-.22,6.33,11.76.41-.13,3.73-11.76-.41-.24,6.71Z"/><path class="cls-1" d="M271,181.59l-4.73-7.31a7.16,7.16,0,0,1-.94,0l-5.5-.19-.24,7.1-4.53-.16.85-24.36,10,.35a13.5,13.5,0,0,1,5.49,1.23,8.13,8.13,0,0,1,3.49,3.12,8.34,8.34,0,0,1,1.09,4.68,8.21,8.21,0,0,1-1.5,4.68,8,8,0,0,1-3.95,2.83l5.32,8.2Zm-1-19.34a7,7,0,0,0-4.45-1.41l-5.29-.19-.34,9.71,5.29.19a6.89,6.89,0,0,0,4.54-1.11,4.45,4.45,0,0,0,1.66-3.55A4.39,4.39,0,0,0,270.06,162.25Z"/><path class="cls-1" d="M151.89,187.55l-.07,1.92,3.05.11,0,1-3.05-.11-.08,2.42-1.17,0,.22-6.31,4.61.16,0,1Z"/><path class="cls-1" d="M183.83,191.5l-3.16-.11-.67,1.44-1.21,0,3.06-6.21,1.16,0,2.63,6.41-1.23,0Zm-.35-.93-1.1-2.8-1.28,2.72Z"/><path class="cls-1" d="M214,193l-1.23-1.9h-.24l-1.43-.05-.06,1.84-1.17-.05.22-6.31,2.59.09a3.58,3.58,0,0,1,1.42.32,2,2,0,0,1,1.19,2,2.14,2.14,0,0,1-.39,1.22,2.1,2.1,0,0,1-1,.73l1.38,2.12Zm-.25-5a1.8,1.8,0,0,0-1.16-.37l-1.37-.05-.08,2.52,1.37.05a1.76,1.76,0,0,0,1.17-.29,1.29,1.29,0,0,0,.07-1.86Z"/><path class="cls-1" d="M245.66,193l.14-4.18-2.2,3.39-.52,0-2-3.48-.14,4.13-1.12,0,.22-6.31,1,0,2.36,4.27,2.61-4.1,1,0-.21,6.31Z"/><path class="cls-1" d="M272.44,192.74a2.88,2.88,0,0,1-1.06-.59l.44-.89a3.19,3.19,0,0,0,.93.53,3.45,3.45,0,0,0,1.13.23,2,2,0,0,0,1.06-.18.71.71,0,0,0,.36-.59.57.57,0,0,0-.17-.45,1.39,1.39,0,0,0-.49-.29c-.19-.08-.46-.16-.8-.26a10.56,10.56,0,0,1-1.16-.38,1.85,1.85,0,0,1-.74-.56,1.45,1.45,0,0,1-.29-1,1.66,1.66,0,0,1,.32-.94,1.87,1.87,0,0,1,.88-.65,3.38,3.38,0,0,1,1.41-.21,4.86,4.86,0,0,1,1.13.19,3.09,3.09,0,0,1,.95.44l-.4.9a4.11,4.11,0,0,0-.85-.4,3.46,3.46,0,0,0-.87-.15,1.86,1.86,0,0,0-1,.19.7.7,0,0,0-.36.61.55.55,0,0,0,.17.45,1.39,1.39,0,0,0,.49.29c.19.07.46.16.8.26a9,9,0,0,1,1.14.37,1.92,1.92,0,0,1,.75.57,1.35,1.35,0,0,1,.29,1,1.66,1.66,0,0,1-.32.94,1.94,1.94,0,0,1-.88.65,3.59,3.59,0,0,1-1.42.2A4.75,4.75,0,0,1,272.44,192.74Z"/></svg>